# xmcd
#
# Track frame offsets:
#	150
#	9785
#	18132
#	25960
#	35667
#	44352
#	51805
#	59182
#	66810
#	76645
#	85137
#	92707
#	95312
#	104015
#	112570
#	121175
#	128497
#	138722
#	147222
#	156127
#	162967
#	170820
#	183572
#	192050
#	201627
#	208220
#	216132
#	227705
#	236820
#	244405
#	247912
#	256237
#	264530
#	272895
#	281380
#	290857
#	297860
#	306407
#	314465
#
# Disc length: 4286 seconds
#
# Revision: 4
# Processed by: cddbd v1.5PL3 Copyright (c) Steve Scherf et al.
# Submitted via: CDex 1.50Beta5
#
DISCID=4310bc27
DTITLE=七瀬光 - 宇宙海賊ミトの大冒険
DYEAR=1900
DGENRE=Soundtrack
TTITLE0=颯爽とした立ち回り
TTITLE1=中納言フルパワー
TTITLE2=ひたひた迫る
TTITLE3=リアルバトル
TTITLE4=ミト見参
TTITLE5=母の思い出
TTITLE6=いそいそとした母親ぶり
TTITLE7=我が子恋しや
TTITLE8=葵との思い出
TTITLE9=母と子の再会
TTITLE10=絶対絶命のサスペンス
TTITLE11=安らかな子守唄
TTITLE12=悪夢
TTITLE13=やるしかない
TTITLE14=戦い続ける
TTITLE15=大混乱
TTITLE16=緊迫ライン
TTITLE17=苦悩
TTITLE18=苦しい言い訳
TTITLE19=銀河パトロール
TTITLE20=睦月のテーマ
TTITLE21=血沸き肉踊る大活劇
TTITLE22=ギクシャクとした空気
TTITLE23=さらに.ギクシャクとした空気
TTITLE24=文部省唱歌的
TTITLE25=サブのテーマ
TTITLE26=シンのテーマ
TTITLE27=GOGO!改造君
TTITLE28=爛磐のテーマ
TTITLE29=一家団欒
TTITLE30=華風子のテーマ
TTITLE31=縁日の情景
TTITLE32=父子の思い出
TTITLE33=問題がある感じ
TTITLE34=混沌としたビート感
TTITLE35=HI!HO!
TTITLE36=家路〜弾き語り〜
TTITLE37=ノスタルジア
TTITLE38=家路
EXTD=
EXTT0=
EXTT1=
EXTT2=
EXTT3=
EXTT4=
EXTT5=
EXTT6=
EXTT7=
EXTT8=
EXTT9=
EXTT10=
EXTT11=
EXTT12=
EXTT13=
EXTT14=
EXTT15=
EXTT16=
EXTT17=
EXTT18=
EXTT19=
EXTT20=
EXTT21=
EXTT22=
EXTT23=
EXTT24=
EXTT25=
EXTT26=
EXTT27=
EXTT28=
EXTT29=
EXTT30=
EXTT31=
EXTT32=
EXTT33=
EXTT34=
EXTT35=
EXTT36=
EXTT37=
EXTT38=
PLAYORDER=
